<svg xmlns="http://www.w3.org/2000/svg" viewBox="0 0 1200 800" role="img" aria-label="晨光中的秘密花园玻璃花房">
  <defs>
    <linearGradient id="sky" x1="0" y1="0" x2="0" y2="1">
      <stop offset="0" stop-color="#dcebf0"/>
      <stop offset="0.55" stop-color="#f7ddd8"/>
      <stop offset="1" stop-color="#fff4df"/>
    </linearGradient>
    <linearGradient id="ground" x1="0" y1="0" x2="0" y2="1">
      <stop offset="0" stop-color="#b9d0b9"/>
      <stop offset="1" stop-color="#789879"/>
    </linearGradient>
    <linearGradient id="path" x1="0" y1="0" x2="0" y2="1">
      <stop offset="0" stop-color="#ead7bf"/>
      <stop offset="1" stop-color="#caa98f"/>
    </linearGradient>
    <filter id="soft" x="-20%" y="-20%" width="140%" height="140%">
      <feGaussianBlur stdDeviation="12"/>
    </filter>
  </defs>
  <rect width="1200" height="800" fill="url(#sky)"/>
  <circle cx="975" cy="125" r="74" fill="#fff1bb" opacity=".82"/>
  <circle cx="975" cy="125" r="112" fill="#fff1bb" opacity=".28" filter="url(#soft)"/>
  <g fill="none" stroke="#fff" stroke-linecap="round" opacity=".62">
    <path d="M242 470V228C242 94 368 58 600 58s358 36 358 170v242" stroke-width="18"/>
    <path d="M600 58v412M420 80v390M780 80v390" stroke-width="8"/>
    <path d="M252 246h696M246 350h708" stroke-width="7" opacity=".75"/>
  </g>
  <g fill="#fff" opacity=".2">
    <path d="M278 214C315 111 412 84 493 75l-83 395H278z"/>
    <path d="M646 63c72 2 139 10 191 35l-78 372H646z"/>
  </g>
  <path d="M0 460C145 419 240 442 360 478c120 36 278-11 406-22 153-14 275 38 434 9v335H0z" fill="url(#ground)"/>
  <path d="M527 800c4-112 12-193 51-252 21-31 43-48 58-77 14 29 37 46 57 77 39 59 47 140 51 252z" fill="url(#path)" opacity=".9"/>
  <g fill="#55765f">
    <ellipse cx="100" cy="506" rx="132" ry="70"/>
    <ellipse cx="246" cy="516" rx="110" ry="67"/>
    <ellipse cx="1025" cy="507" rx="137" ry="74"/>
    <ellipse cx="886" cy="521" rx="115" ry="65"/>
  </g>
  <g fill="#74937a">
    <circle cx="45" cy="444" r="55"/><circle cx="132" cy="432" r="68"/><circle cx="221" cy="456" r="57"/>
    <circle cx="973" cy="441" r="69"/><circle cx="1060" cy="428" r="60"/><circle cx="1147" cy="457" r="65"/>
  </g>
  <g fill="#f4ccd0">
    <circle cx="86" cy="445" r="12"/><circle cx="173" cy="424" r="10"/><circle cx="244" cy="468" r="13"/>
    <circle cx="947" cy="447" r="11"/><circle cx="1030" cy="416" r="13"/><circle cx="1116" cy="461" r="10"/>
  </g>
  <g fill="#d9d1e7">
    <circle cx="121" cy="480" r="9"/><circle cx="203" cy="437" r="11"/><circle cx="1000" cy="482" r="10"/><circle cx="1083" cy="444" r="9"/>
  </g>
  <g transform="translate(138 454)">
    <path d="M0 104h202M30 46h142v58H30zM42 46V18M160 46V18M18 104v72M184 104v72" fill="none" stroke="#8d6f67" stroke-width="14" stroke-linecap="round"/>
    <path d="M30 46h142" stroke="#f3dfcf" stroke-width="22" stroke-linecap="round"/>
  </g>
  <g transform="translate(937 345)">
    <path d="M0 156V56c0-40 31-56 68-56s68 16 68 56v100" fill="#7d947e" stroke="#526d59" stroke-width="11"/>
    <path d="M20 156V62c0-25 18-37 48-37s48 12 48 37v94" fill="#b9cab6" stroke="#526d59" stroke-width="8"/>
    <path d="M68 25v131" stroke="#526d59" stroke-width="7"/>
    <circle cx="68" cy="91" r="7" fill="#d6ad70"/>
  </g>
  <g fill="#456e57" opacity=".88">
    <path d="M0 708c90-49 164-45 249 9 77 49 144 38 217 5v78H0z"/>
    <path d="M1200 698c-95-43-169-35-254 19-77 49-145 38-218 5v78h472z"/>
  </g>
  <g fill="#f8e6d0" opacity=".88">
    <ellipse cx="443" cy="660" rx="44" ry="14"/><ellipse cx="474" cy="713" rx="52" ry="16"/>
    <ellipse cx="783" cy="665" rx="46" ry="14"/><ellipse cx="755" cy="729" rx="54" ry="16"/>
  </g>
</svg>
